<svg width="19" height="19" viewBox="0 0 19 19" fill="none" xmlns="http://www.w3.org/2000/svg">
<path fill-rule="evenodd" clip-rule="evenodd" d="M9.5 0C6.22081 0 3.5625 2.65831 3.5625 5.9375V9.43732C3.5625 9.49594 3.54515 9.55324 3.51264 9.60201L1.49017 12.6357C1.29281 12.9318 1.1875 13.2796 1.1875 13.6354C1.1875 14.6307 1.99435 15.4375 2.98964 15.4375H16.0104C17.0057 15.4375 17.8125 14.6307 17.8125 13.6354C17.8125 13.2796 17.7072 12.9318 17.5098 12.6357L15.4874 9.60201C15.4548 9.55324 15.4375 9.49594 15.4375 9.43732V5.9375C15.4375 2.65831 12.7792 0 9.5 0ZM5.34375 5.9375C5.34375 3.64206 7.20456 1.78125 9.5 1.78125C11.7954 1.78125 13.6562 3.64206 13.6562 5.9375V9.43732C13.6562 9.8476 13.7777 10.2487 14.0053 10.5901L16.0277 13.6237C16.0301 13.6272 16.0312 13.6312 16.0312 13.6354C16.0312 13.638 16.0307 13.6412 16.0307 13.6412L16.0299 13.6432C16.0299 13.6432 16.0277 13.6476 16.0251 13.6501C16.0226 13.6527 16.0182 13.6549 16.0182 13.6549C16.0182 13.6549 16.0149 13.6562 16.0104 13.6562H2.98964C2.98511 13.6562 2.98178 13.6549 2.98178 13.6549C2.98178 13.6549 2.97741 13.6527 2.97487 13.6501C2.97234 13.6476 2.97002 13.6432 2.97002 13.6432C2.97002 13.6432 2.96875 13.6399 2.96875 13.6354C2.96875 13.6312 2.96997 13.6272 2.97225 13.6237L4.99473 10.5901C5.2223 10.2487 5.34375 9.8476 5.34375 9.43732V5.9375Z" fill="white"/>
<path d="M11.8567 16.9213C11.7109 18.0931 10.7113 19 9.49999 19C8.28865 19 7.28913 18.0931 7.14329 16.9213C7.12304 16.7586 7.25791 16.625 7.42187 16.625H11.5781C11.7421 16.625 11.8769 16.7586 11.8567 16.9213Z" fill="white"/>
</svg>
