<svg width="14" height="16" viewBox="0 0 14 16" fill="none" xmlns="http://www.w3.org/2000/svg">
<path d="M4.1 4.8C4.04011 4.72099 4.00512 4.62592 3.99949 4.52694C3.99385 4.42795 4.01783 4.32954 4.06837 4.24424C4.1189 4.15894 4.1937 4.09063 4.28322 4.04802C4.37275 4.00541 4.47293 3.99043 4.571 4.005C4.70217 4.02383 4.82051 4.09397 4.9 4.2L7 7V0.5C7 0.367392 7.05268 0.240215 7.14645 0.146447C7.24021 0.0526784 7.36739 0 7.5 0C7.63261 0 7.75979 0.0526784 7.85355 0.146447C7.94732 0.240215 8 0.367392 8 0.5V7L10.1 4.2C10.1596 4.12134 10.241 4.06202 10.3342 4.02947C10.4273 3.99693 10.528 3.99262 10.6236 4.01708C10.7192 4.04154 10.8054 4.09368 10.8715 4.16696C10.9376 4.24024 10.9805 4.3314 10.995 4.429C11.0043 4.49405 11.0007 4.5603 10.9844 4.62396C10.9681 4.68762 10.9394 4.74744 10.9 4.8L7.9 8.8C7.894 8.808 7.883 8.812 7.876 8.82C7.8427 8.85909 7.80357 8.89282 7.76 8.92C7.74452 8.93299 7.72777 8.94438 7.71 8.954C7.64479 8.98657 7.57289 9.00352 7.5 9.00352C7.42711 9.00352 7.35521 8.98657 7.29 8.954C7.27223 8.94438 7.25548 8.93299 7.24 8.92C7.19643 8.89282 7.1573 8.85909 7.124 8.82C7.117 8.812 7.106 8.808 7.1 8.8L4.1 4.8ZM4.75 14.75C4.75047 14.9973 4.67729 15.2391 4.5398 15.4446C4.40231 15.6501 4.20673 15.8101 3.978 15.904C3.80729 15.9743 3.62315 16.006 3.43877 15.9968C3.25439 15.9875 3.07432 15.9377 2.91147 15.8507C2.74863 15.7637 2.60703 15.6418 2.49682 15.4937C2.38661 15.3456 2.31052 15.175 2.274 14.994C2.23921 14.8226 2.24075 14.6459 2.27854 14.4752C2.31632 14.3045 2.38949 14.1436 2.49334 14.0029C2.59718 13.8622 2.72939 13.7449 2.8814 13.6585C3.03342 13.5721 3.20187 13.5186 3.37587 13.5014C3.54987 13.4841 3.72555 13.5036 3.89155 13.5585C4.05756 13.6134 4.21019 13.7026 4.3396 13.8201C4.46901 13.9377 4.57231 14.0811 4.64283 14.2411C4.71335 14.4011 4.74952 14.5742 4.749 14.749L4.75 14.75ZM12.75 14.75C12.7505 14.9973 12.6773 15.2391 12.5398 15.4446C12.4023 15.6501 12.2067 15.8101 11.978 15.904C11.8073 15.9743 11.6232 16.006 11.4388 15.9968C11.2544 15.9875 11.0743 15.9377 10.9115 15.8507C10.7486 15.7637 10.607 15.6418 10.4968 15.4937C10.3866 15.3456 10.3105 15.175 10.274 14.994C10.2408 14.8233 10.2436 14.6476 10.2822 14.4781C10.3208 14.3086 10.3944 14.149 10.4982 14.0096C10.602 13.8702 10.7338 13.7539 10.8851 13.6683C11.0365 13.5828 11.204 13.5297 11.377 13.5126C11.55 13.4954 11.7247 13.5146 11.8898 13.5689C12.055 13.6231 12.207 13.7113 12.3362 13.8277C12.4653 13.944 12.5687 14.0861 12.6398 14.2448C12.7109 14.4034 12.7481 14.5752 12.749 14.749L12.75 14.75ZM13 5.5C12.8674 5.5 12.7402 5.55268 12.6464 5.64645C12.5527 5.74021 12.5 5.86739 12.5 6L12 10H3.09L1.99 3.42C1.97068 3.30376 1.91092 3.19807 1.82127 3.1216C1.73162 3.04512 1.61784 3.00276 1.5 3.002H0.5C0.367392 3.002 0.240215 3.05468 0.146447 3.14845C0.0526784 3.24221 0 3.36939 0 3.502C0 3.63461 0.0526784 3.76179 0.146447 3.85555C0.240215 3.94932 0.367392 4.002 0.5 4.002H1.076L2.506 12.582C2.52464 12.6991 2.58462 12.8056 2.67506 12.8823C2.76551 12.959 2.88043 13.0008 2.999 13H11.999C12.1316 13 12.2588 12.9473 12.3526 12.8536C12.4463 12.7598 12.499 12.6326 12.499 12.5C12.499 12.3674 12.4463 12.2402 12.3526 12.1464C12.2588 12.0527 12.1316 12 11.999 12H3.419L3.252 11H11.992C12.2357 10.9999 12.471 10.9109 12.6536 10.7496C12.8363 10.5883 12.9538 10.3658 12.984 10.124L13.492 6.004C13.492 5.87139 13.4393 5.74421 13.3456 5.65045C13.2518 5.55668 13.1246 5.504 12.992 5.504L13 5.5Z" fill="white"/>
</svg>
