<svg width="13" height="13" viewBox="0 0 13 13" fill="none" xmlns="http://www.w3.org/2000/svg">
<g clip-path="url(#clip0_1_546)">
<path d="M6.5 12.5877C9.71741 12.5877 12.3256 9.97943 12.3256 6.76203C12.3256 3.54462 9.71741 0.936401 6.5 0.936401C3.2826 0.936401 0.674377 3.54462 0.674377 6.76203C0.674377 9.97943 3.2826 12.5877 6.5 12.5877Z" fill="#D68F30"/>
<path d="M1.07047 8.27531V8.87046C1.1314 9.02789 1.19945 9.18328 1.27359 9.33359V8.27531H1.07047ZM1.73468 9.39554V10.1105C1.81593 10.2253 1.90023 10.338 1.98859 10.4467V9.39554H1.73468ZM2.61422 10.3299V11.1008C2.71273 11.1891 2.81429 11.2734 2.9189 11.3547V10.3299H2.61422ZM3.69687 11.0398V11.8686C3.7964 11.9234 3.89797 11.9752 4.00156 12.025V11.0398H3.69687ZM4.92476 11.4918V12.3693C5.02531 12.3977 5.12687 12.4231 5.22945 12.4465V11.4918H4.92476ZM6.36187 11.6482V12.5836C6.40757 12.5846 6.45328 12.5866 6.5 12.5866C6.55586 12.5866 6.61171 12.5836 6.66656 12.5826V11.6482H6.36187ZM7.79898 11.4847V12.4394C7.90156 12.416 8.00312 12.3896 8.10367 12.3612V11.4847H7.79898ZM9.02382 11.0266V12.0128C9.12742 11.963 9.22898 11.9092 9.32851 11.8534V11.0266H9.02382ZM10.1034 10.3106V11.3364C10.208 11.2547 10.3096 11.1693 10.4081 11.0805V10.3106H10.1034ZM11.2826 9.3732H11.0287V10.4244C11.117 10.3147 11.2023 10.2019 11.2826 10.0862V9.3732ZM11.9427 8.2489H11.7396V9.30921C11.8137 9.15585 11.8818 8.99843 11.9427 8.83898V8.2489Z" fill="#BC6F00"/>
<path d="M6.5 12.0636C9.71741 12.0636 12.3256 9.45538 12.3256 6.23798C12.3256 3.02057 9.71741 0.412354 6.5 0.412354C3.2826 0.412354 0.674377 3.02057 0.674377 6.23798C0.674377 9.45538 3.2826 12.0636 6.5 12.0636Z" fill="#FFF176"/>
<path d="M6.5 11.5446C9.43078 11.5446 11.8066 9.16875 11.8066 6.23798C11.8066 3.3072 9.43078 0.931335 6.5 0.931335C3.56922 0.931335 1.19336 3.3072 1.19336 6.23798C1.19336 9.16875 3.56922 11.5446 6.5 11.5446Z" fill="#F2BC1A"/>
<path d="M1.1832 6.44109C1.14562 5.74234 1.26648 5.03344 1.51023 4.36922C1.76414 3.70703 2.15312 3.09461 2.64367 2.57461C3.62882 1.53258 5.05882 0.928282 6.49999 0.921173C7.94117 0.929298 9.37218 1.53258 10.3553 2.57563C10.8469 3.09461 11.2348 3.70805 11.4887 4.36922C11.7335 5.03445 11.8544 5.74234 11.8158 6.44109H11.7955C11.7934 5.74404 11.6554 5.05409 11.3892 4.40984C11.1226 3.76632 10.7331 3.18091 10.2426 2.68633C9.75174 2.19227 9.16854 1.79956 8.52617 1.53055C7.88396 1.26238 7.19493 1.1243 6.49898 1.1243C5.80303 1.1243 5.114 1.26238 4.47179 1.53055C3.82942 1.79956 3.24622 2.19227 2.75539 2.68633C2.26466 3.18074 1.87516 3.7662 1.60874 4.40984C1.3426 5.05409 1.20461 5.74404 1.20249 6.44109H1.1832Z" fill="#E08F00"/>
<path d="M6.5 0.413361C3.2825 0.413361 0.674377 3.02149 0.674377 6.23899C0.674377 9.45649 3.2825 12.0646 6.5 12.0646C9.7175 12.0646 12.3256 9.45649 12.3256 6.23899C12.3256 3.02149 9.7175 0.413361 6.5 0.413361ZM6.5 11.5456C3.56891 11.5456 1.19336 9.17008 1.19336 6.23899C1.19336 3.30688 3.56891 0.931329 6.5 0.931329C9.4311 0.931329 11.8066 3.30688 11.8066 6.23797C11.8066 9.16906 9.4311 11.5456 6.5 11.5456Z" fill="#FFF176"/>
<path d="M3.85836 2.16837L3.98734 2.56751L4.40781 2.40704V2.56751L4.06757 2.8143L4.19757 3.05196V3.21344L3.85836 2.96665L3.51812 3.21344V3.05196L3.64812 2.8143L3.3089 2.56751V2.40704L3.72836 2.56751L3.85836 2.16837ZM2.23539 4.45962L2.36539 4.85876L2.78484 4.69829V4.85876L2.44562 5.10555L2.57562 5.34422V5.50469L2.23539 5.2579L1.89617 5.50469V5.34422L2.02617 5.10555L1.68593 4.85876V4.69829L2.1064 4.85876L2.23539 4.45962ZM2.18765 7.28407L2.31765 7.68321L2.73711 7.52274V7.68321L2.39789 7.93001L2.52789 8.16868V8.32915L2.18765 8.08235L1.84843 8.32915V8.16868L1.97843 7.93001L1.6382 7.68321V7.52274L2.05867 7.68321L2.18765 7.28407ZM3.92031 9.52657L4.05031 9.92571L4.46976 9.76524V9.92571L4.13054 10.1725L4.26054 10.4102V10.5716L3.92031 10.3249L3.58109 10.5716V10.4102L3.71109 10.1725L3.37086 9.92571V9.76524L3.79132 9.92571L3.92031 9.52657ZM9.14164 2.16837L9.01265 2.56751L8.59218 2.40704V2.56751L8.93242 2.8143L8.80242 3.05196V3.21344L9.14164 2.96665L9.48187 3.21344V3.05196L9.35187 2.8143L9.69109 2.56751V2.40704L9.27164 2.56751L9.14164 2.16837ZM10.7646 4.45962L10.6346 4.85876L10.2152 4.69829V4.85876L10.5544 5.10555L10.4244 5.34422V5.50469L10.7646 5.2579L11.1038 5.50469V5.34422L10.9738 5.10555L11.3141 4.85876V4.69829L10.8936 4.85876L10.7646 4.45962ZM10.8123 7.28407L10.6823 7.68321L10.2629 7.52274V7.68321L10.6021 7.93001L10.4721 8.16868V8.32915L10.8123 8.08235L11.1516 8.32915V8.16868L11.0216 7.93001L11.3618 7.68321V7.52274L10.9413 7.68321L10.8123 7.28407ZM9.07968 9.52657L8.94968 9.92571L8.53023 9.76524V9.92571L8.86945 10.1725L8.73945 10.4102V10.5716L9.07968 10.3249L9.4189 10.5716V10.4102L9.2889 10.1725L9.62914 9.92571V9.76524L9.20867 9.92571L9.07968 9.52657Z" fill="#D38200"/>
<path d="M9.07968 9.36507L9.20867 9.76421H9.62913L9.2889 10.011L9.4189 10.4101L9.07968 10.1634L8.73945 10.4101L8.86945 10.011L8.53023 9.76421H8.94968L9.07968 9.36507ZM10.8123 7.12358L10.9413 7.52273H11.3618L11.0216 7.76952L11.1516 8.16866L10.8123 7.92187L10.4721 8.16866L10.6021 7.76952L10.2629 7.52273H10.6823L10.8123 7.12358ZM10.7646 4.29913L10.8936 4.69827H11.3141L10.9738 4.94507L11.1038 5.34421L10.7646 5.09741L10.4244 5.34421L10.5544 4.94507L10.2151 4.69827H10.6346L10.7646 4.29913ZM9.14163 2.00687L9.27163 2.40601H9.69109L9.35187 2.6528L9.48187 3.05194L9.14163 2.80515L8.80242 3.05194L8.93242 2.6528L8.59218 2.40601H9.01265L9.14163 2.00687Z" fill="#FFF176"/>
<path d="M6.50508 10.4102L6.63508 10.8093L7.05453 10.6488V10.8093L6.71532 11.0561L6.84532 11.2948V11.4552L6.50508 11.2084L6.16586 11.4552V11.2948L6.29586 11.0561L5.95563 10.8093V10.6488L6.3761 10.8093L6.50508 10.4102Z" fill="#D38200"/>
<path d="M6.50508 10.1969L6.63508 10.596H7.05453L6.71532 10.8428L6.84532 11.2419L6.50508 10.9952L6.16586 11.2419L6.29586 10.8428L5.95563 10.596H6.3761L6.50508 10.1969Z" fill="#FFF176"/>
<path d="M6.50508 1.30914L6.63508 1.70828L7.05453 1.54781V1.70828L6.71532 1.95508L6.84532 2.19375V2.35422L6.50508 2.10742L6.16586 2.35422V2.19375L6.29586 1.95508L5.95563 1.70828V1.54781L6.3761 1.70828L6.50508 1.30914Z" fill="#D38200"/>
<path d="M6.50507 1.14868L6.63507 1.54782H7.05453L6.71531 1.79462L6.84531 2.19376L6.50507 1.94696L6.16585 2.19376L6.29586 1.79462L5.95562 1.54782H6.37609L6.50507 1.14868ZM3.92031 9.36509L3.79132 9.76423H3.37085L3.71109 10.011L3.58109 10.4102L3.92031 10.1634L4.26054 10.4102L4.13054 10.011L4.46976 9.76423H4.05031L3.92031 9.36509ZM2.18765 7.1236L2.05867 7.52274H1.6382L1.97843 7.76954L1.84843 8.16868L2.18765 7.92189L2.52789 8.16868L2.39789 7.76954L2.73711 7.52274H2.31765L2.18765 7.1236ZM2.23539 4.29915L2.1064 4.69829H1.68593L2.02617 4.94509L1.89617 5.34423L2.23539 5.09743L2.57562 5.34423L2.44562 4.94509L2.78484 4.69829H2.36539L2.23539 4.29915ZM3.85836 2.00688L3.72835 2.40603H3.3089L3.64812 2.65282L3.51812 3.05196L3.85836 2.80517L4.19757 3.05196L4.06757 2.65282L4.40781 2.40603H3.98734L3.85836 2.00688Z" fill="#FFF176"/>
<path d="M9.67079 4.89532C9.67079 4.85977 3.33532 4.89532 3.33532 4.89532L3.27844 5.06594V5.35742C3.27844 5.41024 3.3211 5.45289 3.37391 5.45289H9.6261C9.67891 5.45289 9.72157 5.41024 9.72157 5.35742V5.07407L9.67079 4.89532ZM9.67993 8.6836H3.36172L2.93922 8.89586L2.9443 9.16906C2.94532 9.19852 2.96969 9.22289 3.00016 9.22289H10.0009C10.0303 9.22289 10.0557 9.19953 10.0567 9.16906L10.0618 8.90094L9.67993 8.6836Z" fill="#D38200"/>
<path d="M4.38039 7.85282H4.01679C3.95687 7.85282 3.90812 7.66391 3.90812 7.60399L4.48804 7.58571C4.48804 7.64563 4.43929 7.85282 4.38039 7.85282ZM4.50429 5.89165H3.89187C3.84617 5.89165 3.80656 5.86118 3.79336 5.81751L3.74562 5.41837H4.64242L4.60179 5.81751C4.58961 5.86118 4.55 5.89165 4.50429 5.89165ZM3.89187 7.97368H4.50429C4.55 7.97368 4.64039 8.00212 4.65258 8.04579C4.65258 8.04579 4.64953 8.23571 4.64953 8.31087C4.64953 8.38602 4.61906 8.44087 4.55101 8.44087H3.84515C3.77711 8.44087 3.74664 8.37993 3.74664 8.31087C3.74664 8.2418 3.74359 8.04782 3.74359 8.04782C3.75679 8.00415 3.84617 7.97368 3.89187 7.97368ZM9.10304 7.85282H8.73945C8.67953 7.85282 8.63078 7.66391 8.63078 7.60399L9.2107 7.58571C9.2107 7.64563 9.16297 7.85282 9.10304 7.85282ZM9.22695 5.89165H8.61453C8.56883 5.89165 8.52922 5.86118 8.51601 5.81751L8.46828 5.41837H9.36508L9.32445 5.81751C9.31226 5.86118 9.27265 5.89165 9.22695 5.89165ZM8.61453 7.97368H9.22695C9.27265 7.97368 9.36304 8.00212 9.37523 8.04579C9.37523 8.04579 9.37218 8.23571 9.37218 8.31087C9.37218 8.38602 9.34172 8.44087 9.27367 8.44087H8.56781C8.49976 8.44087 8.46929 8.37993 8.46929 8.31087C8.46929 8.2418 8.46625 8.04782 8.46625 8.04782C8.47945 8.00415 8.56883 7.97368 8.61453 7.97368ZM7.52883 7.85282H7.16523C7.10531 7.85282 7.05656 7.66391 7.05656 7.60399L7.63648 7.58571C7.63648 7.64563 7.58875 7.85282 7.52883 7.85282ZM7.65273 5.89165H7.04031C6.99461 5.89165 6.955 5.86118 6.94179 5.81751L6.89406 5.41837H7.79086L7.75023 5.81751C7.73804 5.86118 7.69843 5.89165 7.65273 5.89165ZM7.04031 7.97368H7.65273C7.69843 7.97368 7.78883 8.00212 7.80101 8.04579C7.80101 8.04579 7.79797 8.23571 7.79797 8.31087C7.79797 8.38602 7.7675 8.44087 7.69945 8.44087H6.99359C6.92554 8.44087 6.89508 8.37993 6.89508 8.31087C6.89508 8.2418 6.89203 8.04782 6.89203 8.04782C6.90523 8.00415 6.99461 7.97368 7.04031 7.97368ZM5.95461 7.85282H5.59101C5.53109 7.85282 5.48234 7.66391 5.48234 7.60399L6.06226 7.58571C6.06226 7.64563 6.01453 7.85282 5.95461 7.85282ZM6.07851 5.89165H5.46609C5.42039 5.89165 5.38078 5.86118 5.36758 5.81751L5.31984 5.41837H6.21664L6.17601 5.81751C6.16383 5.86118 6.12422 5.89165 6.07851 5.89165ZM5.46609 7.97368H6.07851C6.12422 7.97368 6.21461 8.00212 6.22679 8.04579C6.22679 8.04579 6.22375 8.23571 6.22375 8.31087C6.22375 8.38602 6.19328 8.44087 6.12523 8.44087H5.41937C5.35133 8.44087 5.32086 8.37993 5.32086 8.31087C5.32086 8.2418 5.31781 8.04782 5.31781 8.04782C5.33101 8.00415 5.42039 7.97368 5.46609 7.97368Z" fill="#D38200"/>
<path d="M9.71649 4.62311C9.71649 4.58756 9.69821 4.55405 9.67079 4.5378L6.50407 2.74014L3.33329 4.53577C3.30282 4.55405 3.28352 4.58756 3.28352 4.62311L3.27844 5.06694C3.27844 5.1228 3.32415 5.1685 3.38 5.1685H9.61899C9.67485 5.1685 9.72055 5.1228 9.72055 5.06694L9.71649 4.62311Z" fill="#FFF176"/>
<path d="M8.92125 4.50225L6.5 3.12811L4.07875 4.50225H8.92125Z" fill="#F2BC1A"/>
<path d="M8.03055 4.33468L6.50001 3.4653L4.96946 4.33468H8.03055ZM9.48493 8.33014H3.51509C3.45618 8.33014 3.40032 8.35554 3.36071 8.39921L2.9504 8.85725C2.92196 8.88874 2.9443 8.9385 2.98696 8.9385H10.0131C10.0547 8.9385 10.077 8.88874 10.0496 8.85725L9.63829 8.39921C9.59969 8.35554 9.54282 8.33014 9.48493 8.33014ZM9.10305 7.66897H8.73946C8.67954 7.66897 8.63079 7.62022 8.63079 7.5603V5.93733C8.63079 5.87741 8.67954 5.82866 8.73946 5.82866H9.10305C9.16298 5.82866 9.21173 5.87741 9.21173 5.93733V7.56132C9.21173 7.62124 9.16298 7.66897 9.10305 7.66897ZM9.22798 5.7078H8.61555C8.56985 5.7078 8.53024 5.67733 8.51704 5.63366L8.47032 5.47218C8.45102 5.40718 8.50079 5.34218 8.56884 5.34218H9.27469C9.34274 5.34218 9.39149 5.40718 9.37321 5.47218L9.32649 5.63366C9.31329 5.67733 9.27266 5.7078 9.22798 5.7078ZM8.61454 7.79085H9.22696C9.27266 7.79085 9.31227 7.82132 9.32548 7.86499L9.37219 8.02647C9.39149 8.09147 9.34173 8.15647 9.27368 8.15647H8.56782C8.49977 8.15647 8.45102 8.09147 8.4693 8.02647L8.51602 7.86499C8.52923 7.8203 8.56985 7.79085 8.61454 7.79085ZM4.3804 7.66897H4.0168C3.95688 7.66897 3.90813 7.62022 3.90813 7.5603V5.93733C3.90813 5.87741 3.95688 5.82866 4.0168 5.82866H4.3804C4.44032 5.82866 4.48907 5.87741 4.48907 5.93733V7.56132C4.48805 7.62124 4.4393 7.66897 4.3804 7.66897ZM4.5043 5.7078H3.89188C3.84618 5.7078 3.80657 5.67733 3.79337 5.63366L3.74665 5.47218C3.72735 5.40718 3.77712 5.34218 3.84516 5.34218H4.55102C4.61907 5.34218 4.66782 5.40718 4.64954 5.47218L4.60282 5.63366C4.58962 5.67733 4.55001 5.7078 4.5043 5.7078ZM3.89188 7.79085H4.5043C4.55001 7.79085 4.58962 7.82132 4.60282 7.86499L4.64954 8.02647C4.66883 8.09147 4.61907 8.15647 4.55102 8.15647H3.84516C3.77712 8.15647 3.72837 8.09147 3.74665 8.02647L3.79337 7.86499C3.80657 7.8203 3.84618 7.79085 3.89188 7.79085ZM5.95462 7.66897H5.59102C5.5311 7.66897 5.48235 7.62022 5.48235 7.5603V5.93733C5.48235 5.87741 5.5311 5.82866 5.59102 5.82866H5.95462C6.01454 5.82866 6.06329 5.87741 6.06329 5.93733V7.56132C6.06302 7.58996 6.05145 7.61734 6.0311 7.6375C6.01075 7.65766 5.98326 7.66897 5.95462 7.66897ZM6.07852 5.7078H5.4661C5.4204 5.7078 5.38079 5.67733 5.36758 5.63366L5.32087 5.47218C5.30157 5.40718 5.35134 5.34218 5.41938 5.34218H6.12524C6.19329 5.34218 6.24204 5.40718 6.22376 5.47218L6.17704 5.63366C6.16383 5.67733 6.12423 5.7078 6.07852 5.7078ZM5.4661 7.79085H6.07852C6.12423 7.79085 6.16383 7.82132 6.17704 7.86499L6.22376 8.02647C6.24305 8.09147 6.19329 8.15647 6.12524 8.15647H5.41938C5.35134 8.15647 5.30258 8.09147 5.32087 8.02647L5.36758 7.86499C5.38079 7.8203 5.4204 7.79085 5.4661 7.79085ZM7.52883 7.66897H7.16524C7.10532 7.66897 7.05657 7.62022 7.05657 7.5603V5.93733C7.05657 5.87741 7.10532 5.82866 7.16524 5.82866H7.52883C7.58876 5.82866 7.63751 5.87741 7.63751 5.93733V7.56132C7.63724 7.58996 7.62567 7.61734 7.60532 7.6375C7.58497 7.65766 7.55748 7.66897 7.52883 7.66897ZM7.65274 5.7078H7.04032C6.99462 5.7078 6.95501 5.67733 6.9418 5.63366L6.89509 5.47218C6.87579 5.40718 6.92555 5.34218 6.9936 5.34218H7.69946C7.76751 5.34218 7.81626 5.40718 7.79798 5.47218L7.75126 5.63366C7.73805 5.67733 7.69844 5.7078 7.65274 5.7078ZM7.04032 7.79085H7.65274C7.69844 7.79085 7.73805 7.82132 7.75126 7.86499L7.79798 8.02647C7.81727 8.09147 7.76751 8.15647 7.69946 8.15647H6.9936C6.92555 8.15647 6.8768 8.09147 6.89509 8.02647L6.9418 7.86499C6.95501 7.8203 6.99563 7.79085 7.04032 7.79085Z" fill="#FFF176"/>
</g>
<defs>
<clipPath id="clip0_1_546">
<rect width="13" height="13" fill="white"/>
</clipPath>
</defs>
</svg>
