<svg width="24" height="24" viewBox="0 0 24 24" fill="none" xmlns="http://www.w3.org/2000/svg">
<path fill-rule="evenodd" clip-rule="evenodd" d="M16.4211 1.89474H7.57895C4.43964 1.89474 1.89474 4.43964 1.89474 7.57895V16.4211C1.89474 19.5604 4.43964 22.1053 7.57895 22.1053H16.4211C19.5604 22.1053 22.1053 19.5604 22.1053 16.4211V7.57895C22.1053 4.43964 19.5604 1.89474 16.4211 1.89474ZM7.57895 0C3.39321 0 0 3.39321 0 7.57895V16.4211C0 20.6068 3.39321 24 7.57895 24H16.4211C20.6068 24 24 20.6068 24 16.4211V7.57895C24 3.39321 20.6068 0 16.4211 0H7.57895Z" fill="white"/>
<path fill-rule="evenodd" clip-rule="evenodd" d="M12 4.73684C12.5232 4.73684 12.9474 5.16099 12.9474 5.68421V11.0526H18.3158C18.839 11.0526 19.2632 11.4768 19.2632 12C19.2632 12.5232 18.839 12.9474 18.3158 12.9474H12.9474V18.3158C12.9474 18.839 12.5232 19.2632 12 19.2632C11.4768 19.2632 11.0526 18.839 11.0526 18.3158V12.9474H5.68421C5.16099 12.9474 4.73684 12.5232 4.73684 12C4.73684 11.4768 5.16099 11.0526 5.68421 11.0526H11.0526V5.68421C11.0526 5.16099 11.4768 4.73684 12 4.73684Z" fill="white"/>
</svg>
