<svg width="11" height="11" viewBox="0 0 11 11" fill="none" xmlns="http://www.w3.org/2000/svg">
<path d="M4.37034 4.37127C4.17888 4.5628 4.07134 4.82254 4.07139 5.09336C4.07144 5.36418 4.17906 5.62389 4.37059 5.81535C4.56213 6.00681 4.82187 6.11435 5.09269 6.1143C5.36351 6.11425 5.62321 6.00663 5.81468 5.81509M7.48261 7.47852C6.76643 7.9266 5.93751 8.16159 5.09273 8.15601C3.25476 8.15601 1.72312 7.13492 0.497803 5.09273C1.14722 4.01037 1.88241 3.21493 2.70337 2.70643M4.16354 2.12134C4.46937 2.05943 4.78069 2.02864 5.09273 2.02944C6.9307 2.02944 8.46235 3.05054 9.68766 5.09273C9.34764 5.65944 8.98362 6.14803 8.59611 6.558M0.497803 0.497784L9.68766 9.68764" stroke="#ACB5BB" stroke-width="0.995568" stroke-linecap="round" stroke-linejoin="round"/>
</svg>
