<svg width="14" height="14" viewBox="0 0 14 14" fill="none" xmlns="http://www.w3.org/2000/svg">
<g clip-path="url(#clip0_132_112)">
<path d="M5.75515 13.7159C2.48126 13.13 2.22628e-08 10.3041 4.40848e-08 6.89239C6.83314e-08 3.10158 3.10158 1.98382e-08 6.89239 4.40848e-08C10.6832 6.83315e-08 13.7848 3.10158 13.7848 6.89239C13.7848 10.3041 11.3035 13.13 8.02964 13.7159L7.65056 13.4057L6.13423 13.4057L5.75515 13.7159Z" fill="url(#paint0_linear_132_112)"/>
<path d="M9.58044 8.82226L9.8906 6.89239L8.06412 6.89239L8.06412 5.54838C8.06412 4.99699 8.27089 4.58344 9.09798 4.58344L9.99399 4.58344L9.99399 2.82588C9.51152 2.75696 8.96013 2.68803 8.47766 2.68803C6.89241 2.68803 5.78963 3.65297 5.78963 5.37607L5.78963 6.89239L4.06653 6.89239L4.06653 8.82226L5.78963 8.82226L5.78963 13.6814C6.16871 13.7503 6.54779 13.7848 6.92687 13.7848C7.30595 13.7848 7.68504 13.7503 8.06412 13.6814L8.06412 8.82226L9.58044 8.82226Z" fill="white"/>
</g>
<defs>
<linearGradient id="paint0_linear_132_112" x1="6.89274" y1="13.3054" x2="6.89274" y2="-0.00253904" gradientUnits="userSpaceOnUse">
<stop stop-color="#0062E0"/>
<stop offset="1" stop-color="#19AFFF"/>
</linearGradient>
<clipPath id="clip0_132_112">
<rect width="13.7848" height="13.7848" fill="white"/>
</clipPath>
</defs>
</svg>
