<svg width="18" height="18" viewBox="0 0 18 18" fill="none" xmlns="http://www.w3.org/2000/svg">
<path d="M4.35375 15.5C3.99471 15.5 3.65038 15.3525 3.3965 15.09C3.14263 14.8274 3 14.4713 3 14.1L3 2.9C3 2.5287 3.14263 2.1726 3.3965 1.91005C3.65038 1.6475 3.99471 1.5 4.35375 1.5L9.76875 1.5C9.98302 1.49964 10.1952 1.54312 10.3932 1.62794C10.5911 1.71276 10.7709 1.83723 10.9221 1.9942L13.3508 4.5058C13.503 4.66226 13.6237 4.84834 13.7059 5.05332C13.7882 5.25829 13.8303 5.47808 13.83 5.7L13.83 14.1C13.83 14.4713 13.6874 14.8274 13.4335 15.09C13.1796 15.3525 12.8353 15.5 12.4762 15.5L4.35375 15.5Z" stroke="#1D61E7" stroke-linecap="round" stroke-linejoin="round"/>
<path d="M9.76874 1.5L9.76874 5C9.76874 5.18565 9.84006 5.3637 9.967 5.49497C10.0939 5.62625 10.2661 5.7 10.4456 5.7L13.83 5.7M8.41499 8.5L8.41499 12.7M8.41499 8.5L10.4456 10.6M8.41499 8.5L6.38437 10.6" stroke="#1D61E7" stroke-linecap="round" stroke-linejoin="round"/>
</svg>
