<svg width="14" height="14" viewBox="0 0 14 14" fill="none" xmlns="http://www.w3.org/2000/svg">
<path d="M12.9239 7.02633C12.9239 6.53046 12.8828 6.16861 12.794 5.79337L7.01611 5.79337L7.01611 8.03145L10.4076 8.03145C10.3392 8.58765 9.96999 9.42527 9.14946 9.98812L9.13795 10.063L10.9648 11.45L11.0914 11.4624C12.2538 10.4103 12.9239 8.86237 12.9239 7.02633Z" fill="#4285F4"/>
<path d="M7.01569 12.9232C8.67722 12.9232 10.0721 12.3871 11.0909 11.4624L9.14902 9.98817C8.62937 10.3433 7.93191 10.5913 7.01569 10.5913C5.38833 10.5913 4.00713 9.53923 3.51478 8.08511L3.44261 8.09112L1.54303 9.53184L1.51819 9.59952C2.53015 11.5696 4.60881 12.9232 7.01569 12.9232Z" fill="#34A853"/>
<path d="M3.51512 8.08515C3.3852 7.7099 3.31002 7.30781 3.31002 6.89238C3.31002 6.47689 3.3852 6.07485 3.50828 5.6996L3.50484 5.61969L1.58145 4.15584L1.51852 4.18517C1.10144 5.0027 0.862122 5.92074 0.862122 6.89238C0.862122 7.86401 1.10144 8.78201 1.51852 9.59953L3.51512 8.08515Z" fill="#FBBC05"/>
<path d="M7.01572 3.19345C8.17127 3.19345 8.95075 3.68262 9.39522 4.0914L11.132 2.42956C10.0653 1.45793 8.67726 0.861542 7.01572 0.861542C4.60883 0.861542 2.53016 2.21512 1.51819 4.18518L3.50795 5.69961C4.00715 4.24551 5.38836 3.19345 7.01572 3.19345Z" fill="#EB4335"/>
</svg>
