<svg width="24" height="24" viewBox="0 0 24 24" fill="none" xmlns="http://www.w3.org/2000/svg">
<path d="M7.5 22.9004V23.5H2.90039V22.9004H7.5ZM1.2002 22.0996C1.26489 22.255 1.35916 22.3982 1.48047 22.5195C1.60178 22.6408 1.74503 22.7351 1.90039 22.7998V23.4307C1.58426 23.3444 1.29241 23.1791 1.05664 22.9434C0.82081 22.7075 0.65462 22.4159 0.568359 22.0996H1.2002ZM23.4316 22.0996C23.3454 22.4159 23.1792 22.7075 22.9434 22.9434C22.7076 23.1791 22.4157 23.3444 22.0996 23.4307V22.7998C22.255 22.7351 22.3982 22.6408 22.5195 22.5195C22.6408 22.3982 22.7351 22.255 22.7998 22.0996H23.4316ZM9.09961 18.9004V21.9004H8.5V18.9004H9.09961ZM15.5 18.9004V21.9004H14.9004V18.9004H15.5ZM23.5 10.9004V21.0996H22.9004V11.5186L23.0596 11.333L23.4297 10.9004H23.5ZM0.570312 10.9004L0.94043 11.333L1.09961 11.5186V21.0996H0.5V10.9004H0.570312ZM12.5 14.9355C13.2433 15.0428 13.9373 15.3876 14.4746 15.9248C15.012 16.4622 15.3566 17.1569 15.4639 17.9004H14.8535C14.7514 17.3171 14.4752 16.7741 14.0508 16.3496C13.6264 15.9252 13.0833 15.6481 12.5 15.5459V14.9355ZM11.5 15.5459C10.9167 15.6481 10.3736 15.9252 9.94922 16.3496C9.52483 16.7741 9.24863 17.3171 9.14648 17.9004H8.53613C8.64337 17.1569 8.98795 16.4622 9.52539 15.9248C10.0627 15.3876 10.7567 15.0428 11.5 14.9355V15.5459ZM10.7754 1.46289L11.1543 1.78809L11.2305 1.85352L1.84375 9.90039H1.03125L0.984375 9.8457L10.8018 1.43066L10.7754 1.46289ZM23.0146 9.8457L22.9688 9.90039H22.1562L12.7686 1.85352L12.8457 1.78809L13.2246 1.46289L13.1973 1.43066L23.0146 9.8457ZM16.5 22.9004H21.0996V23.5H16.5V22.9004Z" fill="white" stroke="white"/>
</svg>
