<svg width="20" height="22" viewBox="0 0 20 22" fill="none" xmlns="http://www.w3.org/2000/svg">
<path d="M14.5051 0.750076H4.99507C3.83607 0.750076 3.25707 0.750076 2.78907 0.913076C2.348 1.0698 1.94892 1.32594 1.62274 1.66166C1.29655 1.99738 1.05202 2.40367 0.908067 2.84908C0.750067 3.33108 0.750067 3.92708 0.750067 5.12008V19.1241C0.750067 19.9821 1.73507 20.4381 2.35807 19.8681C2.53285 19.7066 2.76209 19.6169 3.00007 19.6169C3.23804 19.6169 3.46728 19.7066 3.64207 19.8681L4.12507 20.3101C4.43127 20.5932 4.833 20.7505 5.25007 20.7505C5.66713 20.7505 6.06886 20.5932 6.37507 20.3101C6.68127 20.0269 7.083 19.8696 7.50007 19.8696C7.91713 19.8696 8.31886 20.0269 8.62507 20.3101C8.93127 20.5932 9.333 20.7505 9.75007 20.7505C10.1671 20.7505 10.5689 20.5932 10.8751 20.3101C11.1813 20.0269 11.583 19.8696 12.0001 19.8696C12.4171 19.8696 12.8189 20.0269 13.1251 20.3101C13.4313 20.5932 13.833 20.7505 14.2501 20.7505C14.6671 20.7505 15.0689 20.5932 15.3751 20.3101L15.8581 19.8681C16.0329 19.7066 16.2621 19.6169 16.5001 19.6169C16.738 19.6169 16.9673 19.7066 17.1421 19.8681C17.7651 20.4381 18.7501 19.9821 18.7501 19.1241V5.12008C18.7501 3.92708 18.7501 3.33008 18.5921 2.85008C18.4482 2.40449 18.2038 1.998 17.8776 1.6621C17.5514 1.32619 17.1522 1.0699 16.7111 0.913076C16.2431 0.750076 15.6641 0.750076 14.5051 0.750076Z" stroke="white" stroke-width="1.5"/>
<path d="M8.25007 9.75008H14.7501M4.75007 9.75008H5.25007M4.75007 6.25008H5.25007M4.75007 13.2501H5.25007M8.25007 6.25008H14.7501M8.25007 13.2501H14.7501" stroke="white" stroke-width="1.5" stroke-linecap="round"/>
</svg>
