<svg width="13" height="15" viewBox="0 0 13 15" fill="none" xmlns="http://www.w3.org/2000/svg">
<path fill-rule="evenodd" clip-rule="evenodd" d="M6.5 1C3.93582 1 1.85714 2.95876 1.85714 5.375V7.95382C1.85714 7.99701 1.84358 8.03923 1.81815 8.07516L0.236674 10.3105C0.0823457 10.5287 0 10.785 0 11.0471C0 11.7805 0.630918 12.375 1.40919 12.375H11.5908C12.3691 12.375 13 11.7805 13 11.0471C13 10.785 12.9176 10.5287 12.7633 10.3105L11.1819 8.07516C11.1564 8.03923 11.1429 7.99701 11.1429 7.95382V5.375C11.1429 2.95876 9.06416 1 6.5 1ZM3.25 5.375C3.25 3.68362 4.70507 2.3125 6.5 2.3125C8.29493 2.3125 9.75 3.68362 9.75 5.375V7.95382C9.75 8.25613 9.84499 8.55167 10.0229 8.80321L11.6044 11.0385C11.6062 11.0411 11.6071 11.044 11.6071 11.0471L11.6067 11.0514L11.6061 11.0529C11.6061 11.0529 11.6044 11.0561 11.6023 11.058C11.6004 11.0599 11.5969 11.0615 11.5969 11.0615C11.5969 11.0615 11.5943 11.0625 11.5908 11.0625H1.40919C1.40565 11.0625 1.40304 11.0615 1.40304 11.0615C1.40304 11.0615 1.39963 11.0599 1.39764 11.058C1.39566 11.0561 1.39385 11.0529 1.39385 11.0529C1.39385 11.0529 1.39286 11.0504 1.39286 11.0471C1.39286 11.044 1.39381 11.0411 1.3956 11.0385L2.97708 8.80321C3.15503 8.55167 3.25 8.25613 3.25 7.95382V5.375Z" fill="white"/>
<path d="M8.34283 13.4683C8.22879 14.3318 7.44721 15 6.49999 15C5.55278 15 4.7712 14.3318 4.65716 13.4683C4.64133 13.3484 4.74678 13.25 4.87499 13.25H8.12499C8.2532 13.25 8.35862 13.3484 8.34283 13.4683Z" fill="white"/>
<ellipse cx="10.4167" cy="2.41667" rx="2.41666" ry="2.41667" fill="#EF4444"/>
</svg>
