<svg width="18" height="18" viewBox="0 0 18 18" fill="none" xmlns="http://www.w3.org/2000/svg">
<path d="M8.55187 13.0238L5.59434 14.8055C5.46369 14.8886 5.3271 14.9242 5.18456 14.9124C5.04203 14.9005 4.91732 14.853 4.81042 14.7698C4.70352 14.6867 4.62038 14.5829 4.56099 14.4584C4.5016 14.3334 4.48972 14.1938 4.52536 14.0393L5.30928 10.672L2.69026 8.40936C2.57149 8.30246 2.49737 8.18059 2.46791 8.04376C2.43798 7.90741 2.44677 7.7739 2.49428 7.64325C2.54179 7.5126 2.61306 7.4057 2.70808 7.32255C2.8031 7.23941 2.93375 7.18596 3.10004 7.16221L6.55643 6.85933L7.89266 3.688C7.95205 3.54547 8.04422 3.43857 8.16917 3.36731C8.29365 3.29604 8.42122 3.26041 8.55187 3.26041C8.68252 3.26041 8.81033 3.29604 8.93528 3.36731C9.05976 3.43857 9.15169 3.54547 9.21108 3.688L10.5473 6.85933L14.0037 7.16221C14.17 7.18596 14.3006 7.23941 14.3957 7.32255C14.4907 7.4057 14.5619 7.5126 14.6095 7.64325C14.657 7.7739 14.666 7.90741 14.6365 8.04376C14.6066 8.18059 14.5323 8.30246 14.4135 8.40936L11.7945 10.672L12.5784 14.0393C12.614 14.1938 12.6021 14.3334 12.5428 14.4584C12.4834 14.5829 12.4002 14.6867 12.2933 14.7698C12.1864 14.853 12.0617 14.9005 11.9192 14.9124C11.7766 14.9242 11.64 14.8886 11.5094 14.8055L8.55187 13.0238Z" fill="#F2C94C"/>
</svg>
