<svg width="13" height="13" viewBox="0 0 13 13" fill="none" xmlns="http://www.w3.org/2000/svg">
<path d="M11.5971 6.2725L6.72209 1.3975C6.51898 1.19604 6.24442 1.0831 5.95835 1.08333L2.16668 1.08333C1.87936 1.08333 1.60381 1.19747 1.40064 1.40063C1.19748 1.60379 1.08334 1.87934 1.08334 2.16666L1.08334 5.95833C1.08323 6.10128 1.11141 6.24284 1.16626 6.37485C1.22111 6.50686 1.30154 6.62672 1.40293 6.7275L6.27793 11.6025C6.48104 11.804 6.7556 11.9169 7.04168 11.9167C7.32853 11.9155 7.6032 11.8005 7.80543 11.5971L11.5971 7.80541C11.8005 7.60318 11.9155 7.32852 11.9167 7.04166C11.9168 6.89871 11.8886 6.75715 11.8338 6.62514C11.7789 6.49313 11.6985 6.37328 11.5971 6.2725ZM7.04168 10.8333L2.16668 5.95833L2.16668 2.16666L5.95835 2.16666L10.8333 7.04166M3.52084 2.70833C3.68154 2.70833 3.83863 2.75598 3.97225 2.84526C4.10586 2.93454 4.21 3.06143 4.2715 3.2099C4.33299 3.35836 4.34908 3.52173 4.31773 3.67934C4.28638 3.83695 4.209 3.98172 4.09537 4.09535C3.98174 4.20898 3.83696 4.28637 3.67935 4.31772C3.52175 4.34907 3.35838 4.33298 3.20991 4.27148C3.06145 4.20999 2.93455 4.10584 2.84528 3.97223C2.756 3.83861 2.70834 3.68153 2.70834 3.52083C2.70834 3.30534 2.79395 3.09868 2.94632 2.9463C3.09869 2.79393 3.30536 2.70833 3.52084 2.70833Z" fill="#1D61E7"/>
</svg>
