<svg width="24" height="24" viewBox="0 0 24 24" fill="none" xmlns="http://www.w3.org/2000/svg">
<path fill-rule="evenodd" clip-rule="evenodd" d="M7.5 6C7.5 3.51472 9.51471 1.5 12 1.5C14.4853 1.5 16.5 3.51472 16.5 6C16.5 8.48528 14.4853 10.5 12 10.5C9.51471 10.5 7.5 8.48528 7.5 6Z" fill="white"/>
<path fill-rule="evenodd" clip-rule="evenodd" d="M3.75124 20.1053C3.82858 15.6156 7.49198 12 12 12C16.5081 12 20.1716 15.6157 20.2488 20.1056C20.2539 20.4034 20.0823 20.676 19.8117 20.8002C17.4327 21.8918 14.7865 22.5 12.0003 22.5C9.21386 22.5 6.56743 21.8917 4.18832 20.7999C3.91765 20.6757 3.74611 20.4031 3.75124 20.1053Z" fill="white"/>
<path d="M3.75124 20.1053L4.75109 20.1226L3.75124 20.1053ZM20.2488 20.1056L21.2486 20.0885V20.0885L20.2488 20.1056ZM19.8117 20.8002L20.2287 21.7091V21.7091L19.8117 20.8002ZM4.18832 20.7999L3.77123 21.7088H3.77123L4.18832 20.7999ZM12 1.5V0.5C8.96243 0.5 6.5 2.96243 6.5 6H7.5H8.5C8.5 4.067 10.067 2.5 12 2.5V1.5ZM16.5 6H17.5C17.5 2.96243 15.0376 0.5 12 0.5V1.5V2.5C13.933 2.5 15.5 4.067 15.5 6H16.5ZM12 10.5V11.5C15.0376 11.5 17.5 9.03757 17.5 6H16.5H15.5C15.5 7.933 13.933 9.5 12 9.5V10.5ZM7.5 6H6.5C6.5 9.03757 8.96243 11.5 12 11.5V10.5V9.5C10.067 9.5 8.5 7.933 8.5 6H7.5ZM12 12V11C6.94544 11 2.83811 15.0538 2.75139 20.0881L3.75124 20.1053L4.75109 20.1226C4.81905 16.1773 8.03852 13 12 13V12ZM20.2488 20.1056L21.2486 20.0885C21.1621 15.054 17.0547 11 12 11V12V13C15.9616 13 19.1811 16.1775 19.2489 20.1228L20.2488 20.1056ZM19.8117 20.8002L20.2287 21.7091C20.8603 21.4193 21.2605 20.7833 21.2486 20.0885L20.2488 20.1056L19.2489 20.1228C19.2472 20.0236 19.3044 19.9327 19.3946 19.8913L19.8117 20.8002ZM12.0003 22.5V23.5C14.9334 23.5 17.7216 22.8595 20.2287 21.7091L19.8117 20.8002L19.3946 19.8913C17.1439 20.9241 14.6397 21.5 12.0003 21.5V22.5ZM4.18832 20.7999L3.77123 21.7088C6.27855 22.8594 9.06701 23.5 12.0003 23.5V22.5V21.5C9.36071 21.5 6.85631 20.924 4.6054 19.891L4.18832 20.7999ZM3.75124 20.1053L2.75139 20.0881C2.73942 20.7829 3.13967 21.4189 3.77123 21.7088L4.18832 20.7999L4.6054 19.891C4.69562 19.9324 4.7528 20.0233 4.75109 20.1226L3.75124 20.1053Z" fill="url(#paint0_linear_1_661)"/>
<defs>
<linearGradient id="paint0_linear_1_661" x1="12" y1="1.5" x2="12" y2="22.5" gradientUnits="userSpaceOnUse">
<stop stop-color="#124A9A"/>
<stop offset="1" stop-color="#3865E0"/>
</linearGradient>
</defs>
</svg>
